<?xml version="1.0" encoding="UTF-8" standalone="no"?>
<svg
   xmlns:dc="http://purl.org/dc/elements/1.1/"
   xmlns:cc="http://creativecommons.org/ns#"
   xmlns:rdf="http://www.w3.org/1999/02/22-rdf-syntax-ns#"
   xmlns:svg="http://www.w3.org/2000/svg"
   xmlns="http://www.w3.org/2000/svg"
   xmlns:sodipodi="http://sodipodi.sourceforge.net/DTD/sodipodi-0.dtd"
   xmlns:inkscape="http://www.inkscape.org/namespaces/inkscape"
   enable-background="new 0 0 512 512"
   height="512px"
   id="Layer_1"
   version="1.1"
   viewBox="0 0 512 512"
   width="512px"
   xml:space="preserve"
   sodipodi:docname="Add.svg"
   inkscape:version="1.0.2 (e86c870879, 2021-01-15, custom)"
   inkscape:export-filename="/media/dev/ChoreoEngine/repo/ChoreoEngine/assets/icons/Add_32.png"
   inkscape:export-xdpi="6.0000005"
   inkscape:export-ydpi="6.0000005"><metadata
     id="metadata153"><rdf:RDF><cc:Work
         rdf:about=""><dc:format>image/svg+xml</dc:format><dc:type
           rdf:resource="http://purl.org/dc/dcmitype/StillImage" /></cc:Work></rdf:RDF></metadata><defs
     id="defs151" /><sodipodi:namedview
     pagecolor="#ffffff"
     bordercolor="#666666"
     borderopacity="1"
     objecttolerance="10"
     gridtolerance="10"
     guidetolerance="10"
     inkscape:pageopacity="0"
     inkscape:pageshadow="2"
     inkscape:window-width="3840"
     inkscape:window-height="2078"
     id="namedview149"
     showgrid="false"
     inkscape:zoom="1.3652344"
     inkscape:cx="256"
     inkscape:cy="256"
     inkscape:window-x="1080"
     inkscape:window-y="38"
     inkscape:window-maximized="0"
     inkscape:current-layer="Layer_1" /><path
     d="M256,512C114.625,512,0,397.391,0,256C0,114.609,114.625,0,256,0c141.391,0,256,114.609,256,256  C512,397.391,397.391,512,256,512z M256,64C149.969,64,64,149.969,64,256s85.969,192,192,192c106.047,0,192-85.969,192-192  S362.047,64,256,64z M288,384h-64v-96h-96v-64h96v-96h64v96h96v64h-96V384z"
     id="path146"
     style="fill:#00a055;fill-opacity:1" /></svg>
