<?xml version="1.0" encoding="UTF-8" standalone="no"?>
<svg
   xmlns:dc="http://purl.org/dc/elements/1.1/"
   xmlns:cc="http://creativecommons.org/ns#"
   xmlns:rdf="http://www.w3.org/1999/02/22-rdf-syntax-ns#"
   xmlns:svg="http://www.w3.org/2000/svg"
   xmlns="http://www.w3.org/2000/svg"
   xmlns:sodipodi="http://sodipodi.sourceforge.net/DTD/sodipodi-0.dtd"
   xmlns:inkscape="http://www.inkscape.org/namespaces/inkscape"
   enable-background="new 0 0 512 512"
   height="512px"
   id="Layer_1"
   version="1.1"
   viewBox="0 0 512 512"
   width="512px"
   xml:space="preserve"
   sodipodi:docname="Remove.svg"
   inkscape:version="1.0.2 (e86c870879, 2021-01-15, custom)"
   inkscape:export-filename="/media/dev/ChoreoEngine/repo/ChoreoEngine/assets/icons/Remove_32.png"
   inkscape:export-xdpi="6.0000005"
   inkscape:export-ydpi="6.0000005"><metadata
     id="metadata153"><rdf:RDF><cc:Work
         rdf:about=""><dc:format>image/svg+xml</dc:format><dc:type
           rdf:resource="http://purl.org/dc/dcmitype/StillImage" /><dc:title></dc:title></cc:Work></rdf:RDF></metadata><defs
     id="defs151" /><sodipodi:namedview
     pagecolor="#ffffff"
     bordercolor="#666666"
     borderopacity="1"
     objecttolerance="10"
     gridtolerance="10"
     guidetolerance="10"
     inkscape:pageopacity="0"
     inkscape:pageshadow="2"
     inkscape:window-width="3840"
     inkscape:window-height="2078"
     id="namedview149"
     showgrid="false"
     inkscape:zoom="1.3652344"
     inkscape:cx="256"
     inkscape:cy="256"
     inkscape:window-x="1080"
     inkscape:window-y="38"
     inkscape:window-maximized="0"
     inkscape:current-layer="Layer_1" /><path
     d="m 74.980664,437.01934 c -99.967221,-99.96723 -99.978535,-262.06014 0,-362.038676 99.978536,-99.978535 262.071446,-99.967221 362.038676,0 99.97853,99.978536 99.97853,262.060136 0,362.038676 -99.97854,99.97853 -262.06014,99.97853 -362.038676,0 z M 391.7645,120.2355 c -74.97524,-74.975241 -196.55376,-74.975241 -271.529,0 -74.975241,74.97524 -74.975241,196.55376 0,271.529 74.98655,74.98655 196.55376,74.97524 271.529,0 74.97524,-74.97524 74.98655,-196.54245 0,-271.529 z M 188.11775,369.13708 142.86292,323.88225 210.74517,256 142.86292,188.11775 188.11775,142.86292 256,210.74517 323.88225,142.86292 369.13708,188.11775 301.25483,256 369.13708,323.88225 323.88225,369.13708 256,301.25483 Z"
     id="path146"
     style="fill:#ff001e;fill-opacity:1" /></svg>
